# xmcd CD database file
# Copyright (C) 1993-1998 Ti Kan
# 
# Track frame offsets:
#     150
#     13788
#     22318
#     33463
#     61783
#     72403
#     83128
#     98290
#     108993
#     123433
#     135413
#     146345
#     156670
#     161233
#     184123
# 
# Disc length: 2600 seconds
# 
# Revision: 1
# Processed by: cddbd v1.4b41PL1 Copyright (c) Steve Scherf et al.
# Submitted via: DiscPlay 4.0.4
# 
DISCID=ca0a260f
DTITLE=Fats Domino - Blueberry Hill
DYEAR=1900
DGENRE=
TTITLE0=Blueberry Hill
TTITLE1=I'm Ready
TTITLE2=Ain't That A Shame
TTITLE3=So Long
TTITLE4=Hello Josephine
TTITLE5=Blue Monday
TTITLE6=Jambalaya
TTITLE7=Oh What A Price
TTITLE8=I'm In The Mood For Love
TTITLE9=Let The Four Winds Blow
TTITLE10=I Want To Walk You Home
TTITLE11=I'm Gonna Be A Wheel Someday
TTITLE12=Whole Lotta Lovin'
TTITLE13=Domino Twist
TTITLE14=The Fat Man
EXTD=
EXTT0=
EXTT1=
EXTT2=
EXTT3=
EXTT4=
EXTT5=
EXTT6=
EXTT7=
EXTT8=
EXTT9=
EXTT10=
EXTT11=
EXTT12=
EXTT13=
EXTT14=
PLAYORDER=
